<svg width="906.000000" height="546.000000" viewBox="0 0 906 546" fill="none" xmlns="http://www.w3.org/2000/svg" xmlns:xlink="http://www.w3.org/1999/xlink">
	<desc>
			Created with Pixso.
	</desc>
	<defs>
		<clipPath id="clip2_1">
			<rect id="Размер1" width="906.000000" height="546.000000" fill="white" fill-opacity="0"/>
		</clipPath>
	</defs>
	<rect id="Размер1" width="906.000000" height="546.000000" fill="#FFFFFF" fill-opacity="1.000000"/>
	<g clip-path="url(#clip2_1)">
		<path id="Форма 1" d="M380.569 247.949L379.687 245.744C379.099 244.274 373.875 234.839 364.015 217.439C354.155 200.04 344.968 181.615 336.455 162.166C327.942 142.717 323.577 131.192 323.362 127.592C323.146 123.991 324.679 113.453 327.961 95.9778C331.243 78.5022 334.493 67.8289 337.71 63.958C340.927 60.0871 347.25 56.1395 356.677 52.1152C366.104 48.0909 373.543 45.6657 378.992 44.8397C384.442 44.0136 391.178 46.9379 399.203 53.6127C407.227 60.2874 414.272 67.1188 420.339 74.1072C426.406 81.0955 432.883 94.074 439.769 113.043C446.655 132.012 450.702 143.792 451.908 148.383C453.114 152.975 453.818 164.067 454.021 181.659C454.224 199.25 454.326 209.563 454.326 212.596C454.326 215.629 454.326 217.08 454.326 216.947C454.326 216.814 455.91 211.652 459.077 201.46C462.244 191.268 465.194 180.9 467.928 170.356C470.661 159.813 472.795 152.347 474.331 147.959C475.866 143.571 481.693 134.274 491.811 120.07C501.929 105.865 509.111 97.771 513.357 95.7874C517.603 93.8036 526.143 92.3612 538.979 91.46C551.815 90.5588 560.937 93.11 566.347 99.1138C571.757 105.117 576.599 111.822 580.875 119.227C585.15 126.632 587.747 136.996 588.664 150.318C589.581 163.64 588.098 172.922 584.215 178.166C580.331 183.409 575.544 188.845 569.852 194.474C564.16 200.102 559.337 204.37 555.383 207.278C551.429 210.186 547.866 212.765 544.694 215.016C541.523 217.268 539.437 218.766 538.436 219.513C537.435 220.259 536.098 221.596 534.425 223.523C532.752 225.451 532.316 226.561 533.114 226.856C533.913 227.15 543.005 226.805 560.391 225.822C577.776 224.838 590.286 224.728 597.922 225.492C605.557 226.256 612.406 228.331 618.469 231.716C624.533 235.101 627.849 237.325 628.42 238.387C628.99 239.449 630.112 245.718 631.785 257.195C633.457 268.672 632.618 277.348 629.268 283.222C625.917 289.097 622.101 294.777 617.82 300.262C613.539 305.748 608.513 309.58 602.743 311.758C596.972 313.936 588.87 315.647 578.437 316.891C568.004 318.134 560.818 316.797 556.879 312.879C552.941 308.961 550.115 306.019 548.402 304.052C546.689 302.085 545.212 300.115 543.972 298.141C542.731 296.167 541.662 294.768 540.766 293.945C539.87 293.121 539.253 293.105 538.916 293.895C538.578 294.685 538.955 300.031 540.046 309.934C541.137 319.837 542.648 330.176 544.578 340.953C546.508 351.729 547.683 363.942 548.104 377.59C548.525 391.239 548.136 401.534 546.936 408.476C545.736 415.417 544.474 419.409 543.15 420.452C541.826 421.495 534.036 423 519.782 424.967C505.527 426.933 493.551 424.872 483.851 418.781C474.151 412.691 465.404 405.462 457.608 397.093C449.812 388.725 444.372 378.593 441.289 366.697C438.205 354.8 435.919 341.733 434.431 327.494C432.943 313.256 432.383 305.23 432.75 303.416C433.118 301.603 433.246 300.864 433.134 301.199C433.022 301.535 432.592 302.809 431.845 305.021C431.097 307.233 430.337 309.267 429.565 311.123C428.792 312.98 424.307 320.215 416.108 332.829C407.91 345.442 400.999 355.023 395.374 361.571C389.749 368.119 383.391 374.323 376.298 380.183C369.205 386.043 360.387 390.404 349.843 393.265C339.299 396.126 329.75 396.278 321.195 393.719C312.64 391.16 301.752 382.532 288.53 367.835C275.309 353.138 267.394 341.639 264.787 333.338C262.18 325.037 261.611 311.964 263.079 294.118C264.548 276.273 273.798 264.113 290.829 257.638C307.861 251.163 323.662 246.606 338.233 243.968C352.805 241.33 362.028 239.367 365.904 238.079" stroke="#000000" stroke-opacity="1.000000" stroke-width="3.000000" stroke-linecap="round"/>
		<path id="Форма 2" d="M442.525 224.346L440.891 223.938C439.802 223.666 435.869 223.174 429.092 222.463C422.316 221.752 416.281 222.934 410.989 226.011C405.697 229.087 401.763 234.29 399.186 241.62C396.609 248.95 397.842 257.77 402.887 268.079C407.931 278.389 413.283 284.385 418.943 286.069C424.603 287.753 434.467 289.515 448.535 291.354C462.604 293.194 475.53 293.999 487.316 293.768C499.101 293.537 506.274 291.691 508.834 288.229C511.394 284.767 513.98 276.983 516.592 264.878C519.205 252.773 519.523 244.884 517.548 241.211C515.572 237.538 507.413 232.023 493.072 224.667C478.731 217.31 463.764 212.117 448.17 209.088C432.577 206.058 420.785 207.473 412.796 213.331C404.807 219.189 400.061 224.894 398.559 230.446C397.057 235.998 401.209 243.075 411.015 251.675C420.822 260.276 435.421 266.723 454.815 271.014C474.208 275.306 486.371 277.3 491.303 276.997C496.235 276.694 501.08 273.268 505.839 266.72C510.599 260.171 511.668 252.835 509.048 244.712C506.427 236.588 502.183 230.747 496.315 227.191C490.447 223.634 481.027 220.408 468.055 217.513C455.083 214.617 444.552 214.023 436.462 215.729C428.372 217.435 423.517 219.206 421.898 221.044C420.279 222.881 420.007 226.875 421.081 233.028C422.156 239.18 426.676 244.711 434.643 249.621C442.61 254.531 450.462 257.201 458.2 257.63C465.939 258.06 471.186 256.931 473.941 254.244C476.697 251.556 477.84 249.168 477.371 247.08C476.903 244.992 472.777 243.002 464.996 241.112C457.215 239.222 450.07 238.168 443.564 237.95C437.057 237.732 434.527 237.76 435.973 238.035C437.419 238.31 442.218 238.556 450.37 238.773C458.522 238.99 463.922 239.65 466.572 240.755C469.221 241.859 470.335 242.624 469.914 243.048C469.493 243.471 469.002 243.903 468.442 244.341" stroke="#000000" stroke-opacity="1.000000" stroke-width="3.000000" stroke-linecap="round"/>
	</g>
</svg>
